HIERARCHY
ROOT Hips
{
	OFFSET 0.000000 0.000000 0.000000
	CHANNELS 6 Xposition Yposition Zposition Xrotation Yrotation Zrotation
	JOINT LeftUpLeg_virtual
	{
		OFFSET 0.000000 0.000000 0.000000
		CHANNELS 3 Xrotation Yrotation Zrotation
		JOINT LeftUpLeg
		{
			OFFSET 13.026900 -6.336304 -1.092800
			CHANNELS 3 Xrotation Yrotation Zrotation
			JOINT LeftLeg
			{
				OFFSET 0.524474 -46.096886 9.782700
				CHANNELS 3 Xrotation Yrotation Zrotation
				JOINT LeftFoot
				{
					OFFSET -0.524474 -53.427422 -12.948200
					CHANNELS 3 Xrotation Yrotation Zrotation
					JOINT LeftToeBase
					{
						OFFSET 0.192200 -14.009700 16.364100
						CHANNELS 3 Xrotation Yrotation Zrotation
						JOINT LeftToe_End
						{
							OFFSET -1.784700 -0.561700 9.474800
							CHANNELS 3 Xrotation Yrotation Zrotation
							End Site
							{
								OFFSET 0 0 0
							}
						}
					}
				}
			}
		}
	}
	JOINT RightUpLeg_virtual
	{
		OFFSET 0.000000 0.000000 0.000000
		CHANNELS 3 Xrotation Yrotation Zrotation
		JOINT RightUpLeg
		{
			OFFSET -12.883000 -6.336304 -1.092800
			CHANNELS 3 Xrotation Yrotation Zrotation
			JOINT RightLeg
			{
				OFFSET -0.524587 -46.096825 9.782800
				CHANNELS 3 Xrotation Yrotation Zrotation
				JOINT RightFoot
				{
					OFFSET 0.524587 -53.427383 -12.948300
					CHANNELS 3 Xrotation Yrotation Zrotation
					JOINT RightToeBase
					{
						OFFSET -0.192200 -14.009700 16.364100
						CHANNELS 3 Xrotation Yrotation Zrotation
						JOINT RightToe_End
						{
							OFFSET 1.784700 -0.561700 9.474800
							CHANNELS 3 Xrotation Yrotation Zrotation
							End Site
							{
								OFFSET 0 0 0
							}
						}
					}
				}
			}
		}
	}
	JOINT Spine_virtual
	{
		OFFSET 0.000000 0.000000 0.000000
		CHANNELS 3 Xrotation Yrotation Zrotation
		JOINT Spine
		{
			OFFSET 0.072000 7.257294 -0.789700
			CHANNELS 3 Xrotation Yrotation Zrotation
			JOINT Spine1
			{
				OFFSET 0.000000 12.508769 -0.658067
				CHANNELS 3 Xrotation Yrotation Zrotation
				JOINT Spine1_split
				{
					OFFSET 0.000000 12.508769 -0.658067
					CHANNELS 3 Xrotation Yrotation Zrotation
					JOINT Spine2
					{
						OFFSET 0.000000 12.508769 -0.658067
						CHANNELS 3 Xrotation Yrotation Zrotation
						JOINT Neck_virtual
						{
							OFFSET 0.000000 0.000000 0.000000
							CHANNELS 3 Xrotation Yrotation Zrotation
							JOINT Neck
							{
								OFFSET 0.000000 14.033295 7.520400
								CHANNELS 3 Xrotation Yrotation Zrotation
								JOINT Head
								{
									OFFSET 0.000000 8.198502 5.703100
									CHANNELS 3 Xrotation Yrotation Zrotation
									JOINT HeadTop_End
									{
										OFFSET 0.000000 17.760803 13.332701
										CHANNELS 3 Xrotation Yrotation Zrotation
										End Site
										{
											OFFSET 0 0 0
										}
									}
								}
							}
						}
						JOINT LeftShoulder_virtual
						{
							OFFSET 0.000000 0.000000 0.000000
							CHANNELS 3 Xrotation Yrotation Zrotation
							JOINT LeftShoulder
							{
								OFFSET 6.292450 5.785301 -0.669000
								CHANNELS 3 Xrotation Yrotation Zrotation
								JOINT LeftShoulder_split
								{
									OFFSET 6.292450 5.785301 -0.669000
									CHANNELS 3 Xrotation Yrotation Zrotation
									JOINT LeftArm
									{
										OFFSET 13.907140 -6.093903 1.965100
										CHANNELS 3 Xrotation Yrotation Zrotation
										JOINT LeftForeArm
										{
											OFFSET 34.140198 0.000000 0.000000
											CHANNELS 3 Xrotation Yrotation Zrotation
											JOINT LeftHand
											{
												OFFSET 40.960209 0.000000 0.000000
												CHANNELS 3 Xrotation Yrotation Zrotation
												End Site
												{
													OFFSET 0 0 0
												}
											}
										}
									}
								}
							}
						}
						JOINT RightShoulder_virtual
						{
							OFFSET 0.000000 0.000000 0.000000
							CHANNELS 3 Xrotation Yrotation Zrotation
							JOINT RightShoulder
							{
								OFFSET -6.292450 5.785301 -0.669000
								CHANNELS 3 Xrotation Yrotation Zrotation
								JOINT RightShoulder_split
								{
									OFFSET -6.292450 5.785301 -0.669000
									CHANNELS 3 Xrotation Yrotation Zrotation
									JOINT RightArm
									{
										OFFSET -13.907140 -6.093903 1.965100
										CHANNELS 3 Xrotation Yrotation Zrotation
										JOINT RightForeArm
										{
											OFFSET -34.140198 0.000000 0.000000
											CHANNELS 3 Xrotation Yrotation Zrotation
											JOINT RightHand
											{
												OFFSET -40.960209 0.000000 0.000000
												CHANNELS 3 Xrotation Yrotation Zrotation
												End Site
												{
													OFFSET 0 0 0
												}
											}
										}
									}
								}
							}
						}
					}
				}
			}
		}
	}
}
MOTION
Frames: 11
Frame Time: 0.03333333
-1.173006 87.588509 4.268883 0.000000 0.000000 0.000000 25.185774 -13.819949 -2.647497 -92.679315 -5.952989 5.223532 52.769509 10.563103 -8.022457 28.453882 29.588386 0.221729 -6.414814 1.178506 0.939866 0.000000 0.000000 0.000000 24.371694 -10.428267 -4.591279 -1.758999 -12.224771 0.579338 58.337807 0.942302 3.908510 -4.760834 -7.353892 29.097432 -49.726957 1.504632 4.086816 0.000000 0.000000 0.000000 18.662809 -11.761500 -6.225472 9.686710 13.389541 -9.060844 1.877723 4.015189 -0.564285 0.510109 1.967828 0.307682 0.000000 0.000000 0.000000 2.590063 4.334936 -0.700784 -0.230819 -4.138809 3.759688 -3.503727 -8.682609 12.062164 0.000000 0.000000 0.000000 3.239643 4.120366 -0.711406 1.553894 1.973941 -15.919492 -1.631798 -0.178478 -2.265826 -5.786852 24.654283 -35.869042 1.320918 -20.856196 -0.629564 0.000000 0.000000 0.000000 3.151051 4.027129 -0.649219 3.798015 12.117159 -6.528145 0.512828 0.586994 1.994225 -49.192679 64.750863 16.042601 -170.695129 77.042335 168.430949 0.000000 0.000000 0.000000 
-1.908736 87.382195 7.290558 0.000000 0.000000 0.000000 25.890353 -14.030115 -2.681286 -92.915230 -5.800711 5.781201 52.903039 10.069346 -8.020004 27.169927 29.361948 0.450996 -6.394044 1.154307 1.000286 0.000000 0.000000 0.000000 25.430850 -10.157335 -4.775391 -2.153043 -12.224280 -0.800553 56.846718 1.380357 4.186776 -3.049648 -6.950988 28.672414 -50.263372 1.060675 4.625143 0.000000 0.000000 0.000000 20.149654 -11.674674 -6.045970 10.163720 13.077364 -9.479746 2.085890 3.846637 -0.554058 0.712126 1.614363 0.122511 0.000000 0.000000 0.000000 2.748544 4.252631 -0.764127 -0.292275 -3.644007 3.592149 -3.500582 -9.054833 11.958791 0.000000 0.000000 0.000000 3.428946 3.935897 -0.716938 1.521838 1.073436 -16.247400 -2.182478 -0.927129 -2.557541 -7.738748 23.425746 -35.645173 1.478357 -22.496731 -0.605839 0.000000 0.000000 0.000000 3.179225 3.871697 -0.580169 3.832828 12.414284 -6.347488 0.552278 0.340081 2.026328 -46.247207 63.803864 12.995166 -169.011638 77.593353 166.993044 0.000000 0.000000 0.000000 
-3.266999 87.155403 10.888447 0.000000 0.000000 0.000000 27.233725 -14.092016 -2.560300 -93.803147 -5.769710 6.463911 54.387068 8.931277 -7.778775 24.293226 28.825079 0.954443 -6.781194 1.101758 1.129033 0.000000 0.000000 0.000000 27.461617 -9.420720 -4.808696 -4.327211 -11.845741 -3.098380 54.814901 1.385076 4.542390 -0.070890 -7.071016 26.458146 -50.236263 0.125833 6.245906 0.000000 0.000000 0.000000 22.653589 -11.816632 -5.611969 11.256023 12.247936 -10.239086 2.140489 3.630700 -0.704762 1.129349 1.402068 -0.169931 0.000000 0.000000 0.000000 2.794398 4.116719 -0.993344 -0.703287 -3.078806 3.382826 -3.957198 -9.751640 11.964684 0.000000 0.000000 0.000000 3.344215 3.697968 -0.877104 1.385071 -0.173932 -17.174045 -2.945227 -1.021866 -3.068026 -10.385913 21.669421 -34.420281 1.865483 -26.019066 -0.319358 0.000000 0.000000 0.000000 3.024888 3.625029 -0.703928 3.825989 12.908529 -5.770379 0.291405 0.411925 1.986550 -40.126163 61.263170 7.253346 -168.803836 76.733767 166.910794 0.000000 0.000000 0.000000 
-4.919925 86.853539 14.489483 0.000000 0.000000 0.000000 29.090455 -13.857883 -2.296724 -95.202284 -5.737804 7.117188 56.840291 7.329216 -7.337731 20.434526 27.883253 1.535598 -7.505478 1.002919 1.388036 0.000000 0.000000 0.000000 30.012541 -8.526907 -4.627597 -8.616093 -11.221347 -6.216833 52.865661 1.110165 4.908183 3.831584 -7.861769 23.114972 -50.120437 -1.046730 8.309843 0.000000 0.000000 0.000000 25.797671 -11.975082 -4.993384 12.714674 11.032550 -11.189582 2.018758 3.368035 -0.945674 1.438062 1.179591 -0.238415 0.000000 0.000000 0.000000 2.735932 3.917369 -1.299796 -1.385335 -2.525229 3.116635 -4.852976 -10.689461 12.028237 0.000000 0.000000 0.000000 3.071383 3.428349 -1.139323 1.166749 -1.496464 -18.600489 -3.734631 -0.497267 -3.608739 -12.770225 19.719974 -32.638411 2.378592 -30.696120 0.171328 0.000000 0.000000 0.000000 2.716635 3.307490 -0.959874 3.829976 13.505318 -4.953790 -0.092626 0.795448 1.891041 -33.433752 57.573468 1.515821 -170.001428 74.464348 168.147509 0.000000 0.000000 0.000000 
-6.572327 86.590744 17.978420 0.000000 0.000000 0.000000 31.234165 -13.305010 -2.030524 -96.892196 -5.487638 7.798257 59.612395 5.516218 -6.763744 16.398342 26.716956 1.935844 -8.186217 0.861236 1.725082 0.000000 0.000000 0.000000 32.599322 -7.847598 -4.243408 -15.431426 -10.487685 -10.197686 51.668008 1.161745 5.116312 8.483368 -8.642256 20.356161 -50.831084 -2.106755 9.916987 0.000000 0.000000 0.000000 29.097511 -11.922462 -4.370004 14.332845 9.580770 -12.168818 1.782280 3.102267 -1.216455 1.600492 0.945547 -0.077035 0.000000 0.000000 0.000000 2.583845 3.661603 -1.586314 -2.185586 -2.078861 2.830415 -6.031992 -11.648270 12.040156 0.000000 0.000000 0.000000 2.716380 3.156920 -1.412296 0.895372 -2.738834 -20.361655 -4.313737 0.100538 -3.951224 -14.297970 17.691100 -30.653158 2.836716 -36.018033 0.742548 0.000000 0.000000 0.000000 2.345397 2.963867 -1.246457 3.852120 14.136075 -4.102004 -0.384559 1.348596 1.768533 -27.604862 53.504512 -2.863105 -171.714316 71.215241 169.830509 0.000000 0.000000 0.000000 
-8.226970 86.555649 21.439541 0.000000 0.000000 0.000000 33.592165 -12.469957 -1.909634 -98.542158 -4.803508 8.697585 61.890782 3.814635 -6.167429 12.511343 25.657848 2.094581 -8.359146 0.711272 2.066232 0.000000 0.000000 0.000000 34.924970 -7.755817 -3.735611 -24.121976 -9.861597 -14.858742 51.758955 1.892108 5.174509 13.491061 -8.890217 18.988650 -52.021456 -2.758990 10.484751 0.000000 0.000000 0.000000 32.269044 -11.552755 -4.002559 15.838249 8.107517 -13.012241 1.543683 2.867168 -1.470948 1.424410 0.770055 0.110500 0.000000 0.000000 0.000000 2.397758 3.363317 -1.811005 -2.974510 -1.760840 2.590364 -7.241057 -12.504067 11.936267 0.000000 0.000000 0.000000 2.375573 2.903237 -1.648864 0.596792 -3.868851 -22.115833 -4.460620 0.669997 -3.995836 -14.808257 15.756761 -28.850835 3.025181 -41.218361 1.219410 0.000000 0.000000 0.000000 1.997173 2.641346 -1.496318 3.899312 14.809564 -3.284610 -0.661903 1.920817 1.756313 -23.141150 49.765325 -5.587365 -173.274086 67.902107 171.339352 0.000000 0.000000 0.000000 
-10.077496 86.832504 24.952372 0.000000 0.000000 0.000000 36.008330 -11.417414 -2.132725 -99.767385 -3.832134 9.916561 63.176320 2.311119 -5.544715 8.993091 24.913209 1.804535 -8.015069 0.580296 2.308255 0.000000 0.000000 0.000000 36.954438 -8.082404 -3.367946 -33.605955 -9.665158 -19.910713 52.719717 3.039258 5.226853 17.802550 -8.736431 18.673351 -52.137054 -2.767794 9.969789 0.000000 0.000000 0.000000 35.242673 -10.697159 -4.112094 17.126884 6.741066 -13.636812 1.386278 2.624764 -1.726638 1.187341 0.564657 0.348453 0.000000 0.000000 0.000000 2.276505 3.049510 -1.969272 -3.721405 -1.551245 2.391406 -8.233633 -13.272189 11.731360 0.000000 0.000000 0.000000 2.136881 2.670693 -1.844285 0.279736 -5.006633 -23.581863 -4.204652 0.791782 -3.688848 -15.019627 13.890143 -27.355241 2.886145 -45.451282 1.516225 0.000000 0.000000 0.000000 1.706738 2.351468 -1.687829 3.921303 15.432889 -2.453467 -0.951410 2.450460 1.864631 -19.947808 46.717343 -6.968570 -174.528914 65.230663 172.563213 0.000000 0.000000 0.000000 
-11.988041 87.372849 28.134201 0.000000 0.000000 0.000000 38.229272 -10.317827 -2.818079 -100.385107 -2.877407 11.543114 63.639222 0.933564 -4.864326 5.773776 24.583756 1.068770 -7.330285 0.479929 2.366794 0.000000 0.000000 0.000000 38.979995 -8.467891 -3.491353 -42.519386 -10.144100 -24.819996 53.215800 3.871008 5.373898 20.234285 -8.803065 18.209351 -50.018872 -2.089606 8.631796 0.000000 0.000000 0.000000 37.995683 -9.853436 -4.669043 18.198901 5.608084 -13.889559 1.319065 2.392798 -2.017430 1.174715 0.228450 0.521080 0.000000 0.000000 0.000000 2.217025 2.768276 -2.100584 -4.380648 -1.459350 2.283029 -8.840706 -13.806182 11.437930 0.000000 0.000000 0.000000 2.032942 2.471025 -2.035156 -0.016772 -6.222133 -24.488419 -3.780152 0.462187 -3.103905 -15.434597 11.845389 -26.190167 2.482825 -48.165900 1.587977 0.000000 0.000000 0.000000 1.563405 2.123380 -1.873290 3.866799 15.925537 -1.619437 -1.107458 2.905273 2.088747 -17.703000 44.450912 -7.547637 -175.553224 63.405261 173.622275 0.000000 0.000000 0.000000 
-13.877199 87.982315 31.182226 0.000000 0.000000 0.000000 40.326229 -9.257634 -3.935859 -100.606166 -2.276982 13.327285 63.825010 -0.307081 -4.162556 2.786165 24.575208 -0.009018 -6.555388 0.398327 2.251827 0.000000 0.000000 0.000000 41.095756 -8.467463 -4.314475 -49.965180 -11.103465 -29.125764 52.491684 3.767482 5.677872 20.908404 -9.867541 16.870398 -45.602421 -1.025322 6.834187 0.000000 0.000000 0.000000 40.616273 -9.303793 -5.495815 19.027809 4.821439 -13.685550 1.356539 2.200886 -2.340732 1.165443 -0.153108 0.611269 0.000000 0.000000 0.000000 2.170284 2.538091 -2.248548 -4.901771 -1.465112 2.259592 -9.103563 -14.119504 11.137110 0.000000 0.000000 0.000000 2.058391 2.320833 -2.278677 -0.232877 -7.578140 -24.439317 -3.018846 -0.108173 -2.615821 -16.301565 9.492632 -25.343253 1.917417 -49.082614 1.455504 0.000000 0.000000 0.000000 1.605156 1.975296 -2.096222 3.761500 16.294864 -0.807692 -1.037403 3.277810 2.370983 -16.170353 42.928500 -7.656264 -176.485381 62.264783 174.676501 0.000000 0.000000 0.000000 
-15.895430 88.548126 34.086411 0.000000 0.000000 0.000000 42.407371 -8.114105 -5.417579 -100.730093 -2.334245 15.128037 64.240955 -1.517170 -3.471132 0.363036 24.717365 -1.576936 -6.090414 0.314360 2.033304 0.000000 0.000000 0.000000 43.251876 -8.132539 -5.640105 -56.116636 -11.924311 -32.483014 50.196717 2.641288 6.012390 20.732214 -11.837063 15.288052 -39.755481 0.019231 4.878379 0.000000 0.000000 0.000000 43.095352 -8.924893 -6.490870 19.676114 4.370472 -13.087985 1.471645 2.080621 -2.675948 1.119109 -0.481992 0.673605 0.000000 0.000000 0.000000 2.096005 2.374588 -2.405406 -5.164241 -1.523562 2.308449 -9.248862 -14.284145 10.917449 0.000000 0.000000 0.000000 2.191644 2.210019 -2.554294 -0.322184 -9.044640 -23.219245 -1.968449 -0.995905 -2.389537 -17.643316 6.903867 -24.568984 1.399692 -48.641342 1.286018 0.000000 0.000000 0.000000 1.760543 1.895177 -2.321053 3.605465 16.535710 -0.001781 -0.902390 3.666160 2.674420 -15.075623 42.203705 -7.607506 -177.463041 61.275792 175.846526 0.000000 0.000000 0.000000 
-18.198402 88.857758 36.875767 0.000000 0.000000 0.000000 44.469709 -6.878367 -6.979241 -100.970024 -3.103661 16.731226 65.178904 -2.539945 -2.900537 -1.604291 24.974508 -3.399835 -5.902999 0.219197 1.841857 0.000000 0.000000 0.000000 45.512771 -7.313819 -7.168420 -61.715096 -11.789393 -34.699045 46.768406 1.310960 5.998627 20.642158 -13.819925 14.988319 -34.009698 0.794179 2.988201 0.000000 0.000000 0.000000 45.466455 -8.523024 -7.512365 20.227571 4.178008 -12.207322 1.644793 2.060578 -2.963812 1.101598 -0.849588 0.533998 0.000000 0.000000 0.000000 1.997647 2.282498 -2.568821 -5.088653 -1.589610 2.482193 -9.459312 -14.363212 10.807636 0.000000 0.000000 0.000000 2.373335 2.152468 -2.816081 -0.256459 -10.521199 -20.866783 -0.715702 -1.831621 -2.609574 -19.338615 4.402445 -23.641042 0.969091 -47.829807 1.133703 0.000000 0.000000 0.000000 1.971764 1.870201 -2.511383 3.417682 16.699150 0.789393 -0.636866 4.025449 3.034033 -14.549252 42.225138 -7.451787 -178.399063 60.218069 176.978766 0.000000 0.000000 0.000000 
